<svg width="80" height="30" viewBox="0 0 116 50" fill="none" xmlns="http://www.w3.org/2000/svg">
<g clip-path="url(#clip0_305_627)">
<mask id="mask0_305_627" style="mask-type:luminance" maskUnits="userSpaceOnUse" x="-20" y="-49" width="154" height="153">
<path d="M133.31 -49H-20V103.3H133.31V-49Z" fill="white"/>
</mask>
<g mask="url(#mask0_305_627)">
<path d="M49.31 14.42V16.83H40.04V18.27H47.6V24.19H32.43V25.22H47.6V27.64H29.24V21.77H44.42V20.68H29.24V18.27H36.81V16.83H27.54V14.42H49.31Z" fill="#401107"/>
<path d="M38.43 10.83H38.68L38.91 10.81L39.16 10.77L39.39 10.71L39.62 10.65L39.85 10.55L40.0801 10.47L40.3 10.36L40.51 10.25L40.7001 10.11L40.89 9.96002L41.0601 9.81002L41.23 9.66002L41.3801 9.49002L41.51 9.30002L41.64 9.11002L41.76 8.92002L41.85 8.71002L41.93 8.50002L42.01 8.29002L42.07 8.06002L42.1101 7.85002L42.1301 7.62002L42.1501 7.39002L42.1301 7.16002L42.1101 6.95002L42.07 6.72002L42.01 6.49002L41.93 6.28002L41.85 6.07002L41.76 5.86002L41.64 5.67002L41.51 5.48002L41.3801 5.29002L41.23 5.12002L41.0601 4.97002L40.89 4.82002L40.7001 4.67002L40.51 4.53002L40.3 4.42002L40.0801 4.32002L39.85 4.22002L39.62 4.12002L39.39 4.06002L39.16 4.00002L38.91 3.96002L38.68 3.94002H38.18L37.9501 3.96002L37.7001 4.00002L37.4701 4.06002L37.2401 4.12002L37.01 4.22002L36.78 4.32002L36.57 4.42002L36.3601 4.53002L36.17 4.67002L35.98 4.82002L35.8101 4.97002L35.64 5.12002L35.4901 5.29002L35.35 5.48002L35.2201 5.67002L35.1101 5.86002L35.01 6.07002L34.93 6.28002L34.85 6.49002L34.7901 6.72002L34.75 6.95002L34.73 7.16002L34.71 7.39002L34.73 7.62002L34.75 7.85002L34.7901 8.06002L34.85 8.29002L34.93 8.50002L35.01 8.71002L35.1101 8.92002L35.2201 9.11002L35.35 9.30002L35.4901 9.49002L35.64 9.66002L35.8101 9.81002L35.98 9.96002L36.17 10.11L36.3601 10.25L36.57 10.36L36.78 10.47L37.01 10.55L37.2401 10.65L37.4701 10.71L37.7001 10.77L37.9501 10.81L38.18 10.83H38.43ZM40.98 1.68002L41.3601 1.85002L41.7401 2.04002L42.1 2.25002L42.4701 2.48002L42.7901 2.74002L43.12 3.01002L43.41 3.32002L43.7001 3.63002L43.9501 3.96002L44.18 4.30002L44.39 4.67002L44.56 5.03002L44.7201 5.39002L44.85 5.79002L44.95 6.17002L45.0101 6.57002L45.07 6.97002V7.78002L45.0101 8.18002L44.95 8.58002L44.85 8.96002L44.7201 9.36002L44.56 9.72002L44.39 10.1L44.18 10.45L43.9501 10.79L43.7001 11.11L43.41 11.44L43.12 11.73L42.7901 11.99L42.4701 12.26L42.1 12.49L41.7401 12.7L41.3601 12.89L40.98 13.06L40.5601 13.2L40.16 13.31L39.7401 13.41L39.3 13.49L38.8801 13.53H38L37.5801 13.49L37.14 13.41L36.7201 13.31L36.32 13.2L35.9001 13.06L35.5201 12.89L35.14 12.7L34.76 12.49L34.42 12.26L34.07 11.99L33.76 11.73L33.4501 11.44L33.18 11.11L32.93 10.79L32.7001 10.45L32.4901 10.1L32.32 9.72002L32.17 9.36002L32.03 8.96002L31.93 8.58002L31.8601 8.18002L31.82 7.78002L31.8 7.37002L31.82 6.97002L31.8601 6.57002L31.93 6.17002L32.03 5.79002L32.17 5.39002L32.32 5.03002L32.4901 4.67002L32.7001 4.30002L32.93 3.96002L33.18 3.63002L33.4501 3.32002L33.76 3.01002L34.07 2.74002L34.42 2.48002L34.76 2.25002L35.14 2.04002L35.5201 1.85002L35.9001 1.68002L36.32 1.54002L36.7201 1.43002L37.14 1.33002L37.5801 1.27002L38 1.23002L38.44 1.21002L38.8801 1.23002L39.3 1.27002L39.7401 1.33002L40.16 1.43002L40.5601 1.54002L40.98 1.68002Z" fill="#401107"/>
<path d="M12.6101 1.42001L23.23 17.33L20.7201 18.78L12.6101 6.65002L4.56005 18.65L2.05005 17.19L12.6101 1.42001Z" fill="#401107"/>
<path d="M23.17 23.42V25.83H2.03003V23.42H10.98V15.99H14.22V23.42H23.17Z" fill="#401107"/>
<path d="M111.72 48.08V49.51H101.83V43.99H103.74V48.08H111.72Z" fill="#401107"/>
<path d="M111.72 34.54H109.8V45.26H111.72V34.54Z" fill="#401107"/>
<path d="M102.48 40.36L102.63 40.43L102.78 40.5L102.94 40.55L103.1 40.6L103.26 40.64L103.42 40.67H104.08L104.25 40.64L104.41 40.6L104.57 40.55L104.73 40.5L104.88 40.43L105.03 40.36L105.17 40.27L105.31 40.18L105.43 40.09L105.56 39.99L105.67 39.88L105.77 39.76L105.87 39.64L105.95 39.51L106.03 39.37L106.1 39.22L106.16 39.08L106.22 38.93L106.25 38.77L106.27 38.62L106.29 38.47V38.15L106.27 38L106.25 37.85L106.22 37.69L106.16 37.54L106.1 37.4L106.03 37.25L105.95 37.11L105.87 36.99L105.77 36.87L105.67 36.75L105.56 36.64L105.43 36.54L105.31 36.45L105.17 36.36L105.03 36.27L104.88 36.2L104.73 36.13L104.57 36.08L104.41 36.03L104.25 36L104.08 35.97H103.42L103.26 36L103.1 36.03L102.94 36.08L102.78 36.13L102.63 36.2L102.48 36.27L102.33 36.36L102.21 36.45L102.07 36.54L101.96 36.64L101.85 36.75L101.74 36.87L101.65 36.99L101.56 37.11L101.48 37.25L101.41 37.4L101.35 37.54L101.3 37.69L101.26 37.85L101.23 38V38.15L101.21 38.31V38.47L101.23 38.62L101.26 38.77L101.3 38.93L101.35 39.08L101.41 39.22L101.48 39.37L101.56 39.51L101.65 39.64L101.74 39.76L101.85 39.88L101.96 39.99L102.07 40.09L102.21 40.18L102.33 40.27L102.48 40.36ZM107.91 38.07V38.57L107.89 38.83L107.84 39.08L107.77 39.33L107.69 39.57L107.6 39.81L107.49 40.05L107.37 40.26L107.22 40.48L107.06 40.7L106.89 40.89L106.7 41.07L106.49 41.25L106.29 41.41L106.06 41.56L105.83 41.7L105.58 41.81L105.33 41.92L105.08 42.01L104.82 42.08L104.55 42.14L104.28 42.19L104.01 42.21H103.46L103.19 42.19L102.92 42.14L102.66 42.08L102.4 42.01L102.14 41.92L101.89 41.81L101.65 41.7L101.41 41.56L101.19 41.41L100.98 41.25L100.79 41.07L100.6 40.89L100.43 40.7L100.27 40.48L100.12 40.26L100 40.05L99.89 39.81L99.79 39.57L99.71 39.33L99.65 39.08L99.61 38.83L99.57 38.57V38.07L99.61 37.81L99.65 37.56L99.71 37.31L99.79 37.07L99.89 36.83L100 36.59L100.12 36.37L100.27 36.14L100.43 35.94L100.6 35.75L100.79 35.57L100.98 35.39L101.19 35.23L101.41 35.08L101.65 34.95L101.89 34.82L102.14 34.72L102.4 34.63L102.66 34.56L102.92 34.5L103.19 34.45L103.46 34.43H104.01L104.28 34.45L104.55 34.5L104.82 34.56L105.08 34.63L105.33 34.72L105.58 34.82L105.83 34.95L106.06 35.08L106.29 35.23L106.49 35.39L106.7 35.57L106.89 35.75L107.06 35.94L107.22 36.14L107.37 36.37L107.49 36.59L107.6 36.83L107.69 37.07L107.77 37.31L107.84 37.56L107.89 37.81L107.91 38.07Z" fill="#401107"/>
<path d="M79.95 43.47V49.5H69.7V43.47H71.62V44.87H78.04V43.47H79.96H79.95ZM78.03 46.28H71.61V48.07H78.03V46.28Z" fill="#401107"/>
<path d="M79.95 34.54V42.34H78.03V38.28H76.46V36.85H78.03V34.54H79.95Z" fill="#401107"/>
<path d="M76.46 38.28V42.34H68.26V34.54H70.18V36.85H74.55V34.54H76.47V38.28H76.46ZM74.54 38.28H70.17V40.91H74.54V38.28Z" fill="#401107"/>
<path d="M48.3001 43.37V44.8H43.01V49.46H41.1V44.8H35.8V43.37H48.3001Z" fill="#401107"/>
<path d="M47.63 41.53H36.47V34.53H47.63V41.53ZM45.71 35.95H38.38V40.11H45.71V35.95Z" fill="#401107"/>
<path d="M15.5601 43.47V49.5H5.31006V43.47H7.23006V44.87H13.6501V43.47H15.5601ZM13.6501 46.28H7.23006V48.07H13.6501V46.28Z" fill="#401107"/>
<path d="M15.5601 34.54V42.34H13.6501V38.28H12.0701V42.34H3.87006V34.54H5.79006V36.85H10.1601V34.54H12.0701V36.85H13.6501V34.54H15.5601ZM10.1501 38.28H5.78006V40.91H10.1501V38.28Z" fill="#401107"/>
<path d="M53.8148 23.7227V12.8136H56.3375V13.6489H54.7693V22.8875H56.3375V23.7227H53.8148Z" fill="#401107"/>
<path d="M110.772 12.8136V23.7227H108.249V22.8875H109.817V13.6489H108.249V12.8136H110.772Z" fill="#401107"/>
<path d="M73.9063 2.2559H75.1495V4.94664H73.9063V2.2559ZM73.7871 10.26H74.877V17.2423H73.7871V10.26ZM70.0234 4.21435H79.2878V5.33833H70.0234V4.21435ZM76.5459 10.1408H77.6699V15.9991C77.6699 16.3567 77.6869 16.5611 77.7551 16.6292C77.8062 16.6973 77.8913 16.7144 77.9935 16.7144C78.0786 16.7144 78.2489 16.7144 78.3681 16.7144C78.5044 16.7144 78.6066 16.6973 78.6747 16.6462C78.7428 16.5781 78.7939 16.4419 78.845 16.2205C78.879 15.931 78.8961 15.369 78.8961 14.6026C79.1175 14.7729 79.441 14.9432 79.7305 15.0284C79.7135 15.7777 79.6624 16.6292 79.5773 16.9017C79.4921 17.2082 79.3559 17.4126 79.1515 17.5318C78.9812 17.651 78.6747 17.7021 78.4192 17.7021C78.2149 17.7021 77.8743 17.7021 77.704 17.7021C77.4145 17.7021 77.0739 17.617 76.8525 17.4126C76.6141 17.1912 76.5459 16.9187 76.5459 15.8629V10.1408ZM71.0963 10.1748H72.2203V12.2525C72.2203 14.211 71.8967 16.3227 69.4104 17.8724C69.223 17.617 68.8313 17.2423 68.5759 17.055C70.8579 15.6926 71.0963 13.8533 71.0963 12.2355V10.1748ZM69.9724 8.23343C72.016 8.16531 75.0814 8.01204 78.0275 7.84174V8.88057C75.1665 9.08493 72.1863 9.27226 70.0745 9.4085L69.9724 8.23343ZM72.9526 4.91258L74.1958 5.3213C73.5316 6.56449 72.7142 8.01204 72.033 8.96572L71.0793 8.57403C71.7264 7.58629 72.5269 6.01953 72.9526 4.91258ZM75.6093 6.41122L76.58 5.93438C77.704 6.99024 78.9812 8.48888 79.5432 9.51068L78.5044 10.0727C77.9765 9.0679 76.7503 7.51817 75.6093 6.41122ZM64.0459 3.2777H69.4615V4.41871H64.0459V3.2777ZM64.5228 7.38193H65.5616V15.2157H64.5228V7.38193ZM63.4669 15.1817C65.1358 14.7389 67.7414 13.9725 70.2108 13.2402L70.3811 14.3813C68.048 15.0965 65.5786 15.8629 63.7734 16.4078L63.4669 15.1817ZM67.4008 9.08493H70.0575V10.243H67.4008V9.08493ZM69.0698 3.2777H69.3593L69.6147 3.19255L70.4322 3.7886C69.6658 4.89555 68.5418 6.13874 67.6052 6.90509C67.4179 6.6837 67.0773 6.3431 66.8729 6.18983C67.6563 5.4916 68.5929 4.35059 69.0698 3.51612V3.2777ZM66.7367 5.86626L67.8777 6.0025V14.6878H66.7367V5.86626Z" fill="#401107"/>
<path d="M87.8466 22.0413H88.2575V24.4272H87.8466V22.0413ZM88.1436 23.0858H88.9208V23.4273H88.1436V23.0858ZM84.9905 23.9372H85.337C86.2577 23.9372 86.7774 23.9075 87.3764 23.7887L87.4209 24.1203C86.8071 24.249 86.2775 24.2787 85.337 24.2787H84.9905V23.9372ZM84.9905 22.3334H86.9606V22.67H85.3964V24.1698H84.9905V22.3334ZM85.436 24.6698H85.8419V25.2192H87.8516V24.6698H88.2575V26.4419H85.436V24.6698ZM85.8419 25.5459V26.1053H87.8516V25.5459H85.8419ZM92.4003 22.0413H92.8111V24.4272H92.4003V22.0413ZM92.6973 23.0858H93.4744V23.4273H92.6973V23.0858ZM89.5441 23.9372H89.8906C90.8113 23.9372 91.3311 23.9075 91.93 23.7887L91.9746 24.1203C91.3608 24.249 90.8311 24.2787 89.8906 24.2787H89.5441V23.9372ZM89.5441 22.3334H91.5142V22.67H89.95V24.1698H89.5441V22.3334ZM89.9896 24.6698H90.3955V25.2192H92.4052V24.6698H92.8111V26.4419H89.9896V24.6698ZM90.3955 25.5459V26.1053H92.4052V25.5459H90.3955ZM96.9539 22.0265H97.3647V24.4965H96.9539V22.0265ZM97.1915 23.1006H98.028V23.4471H97.1915V23.1006ZM94.5234 24.7242H97.3647V25.7241H94.9392V26.2686H94.5333V25.4271H96.9638V25.0361H94.5234V24.7242ZM94.5333 26.1498H97.5281V26.4666H94.5333V26.1498ZM93.9047 22.4423H96.548V22.764H93.9047V22.4423ZM95.2263 22.962C95.8698 22.962 96.2955 23.2442 96.2955 23.6996C96.2955 24.15 95.8698 24.4272 95.2263 24.4272C94.5729 24.4272 94.1522 24.15 94.1522 23.6996C94.1522 23.2442 94.5729 22.962 95.2263 22.962ZM95.2263 23.264C94.8105 23.264 94.5432 23.4323 94.5432 23.6996C94.5432 23.9619 94.8105 24.1302 95.2263 24.1302C95.6372 24.1302 95.9045 23.9619 95.9045 23.6996C95.9045 23.4323 95.6372 23.264 95.2263 23.264ZM95.0184 21.9918H95.4293V22.665H95.0184V21.9918Z" fill="#401107"/>
<path d="M103.479 24.1451H103.885V24.8331H103.479V24.1451ZM103.687 22.0958C104.672 22.0958 105.261 22.368 105.261 22.868C105.261 23.3679 104.672 23.6451 103.687 23.6451C102.697 23.6451 102.113 23.3679 102.113 22.868C102.113 22.368 102.697 22.0958 103.687 22.0958ZM103.687 22.4076C102.955 22.4076 102.534 22.5759 102.534 22.868C102.534 23.165 102.955 23.3333 103.687 23.3333C104.415 23.3333 104.836 23.165 104.836 22.868C104.836 22.5759 104.415 22.4076 103.687 22.4076ZM101.663 23.9322H105.707V24.2688H101.663V23.9322ZM102.153 24.6797H105.192V25.6895H102.568V26.234H102.163V25.3925H104.786V24.9965H102.153V24.6797ZM102.163 26.1449H105.326V26.4666H102.163V26.1449Z" fill="#401107"/>
<path d="M64.9273 24.452H68.0012V24.7836H64.9273V24.452ZM64.4075 25.6004H68.4616V25.9419H64.4075V25.6004ZM64.9273 22.4225H67.9517V22.7591H65.3431V24.5559H64.9273V22.4225ZM65.2094 23.4224H67.8577V23.7491H65.2094V23.4224ZM70.2135 22.2047C70.8817 22.2047 71.3718 22.6106 71.3718 23.1996C71.3718 23.7837 70.8817 24.1896 70.2135 24.1896C69.5502 24.1896 69.0601 23.7837 69.0601 23.1996C69.0601 22.6106 69.5502 22.2047 70.2135 22.2047ZM70.2135 22.5413C69.7828 22.5413 69.4561 22.8135 69.4561 23.1996C69.4561 23.5857 69.7828 23.853 70.2135 23.853C70.6491 23.853 70.9708 23.5857 70.9708 23.1996C70.9708 22.8135 70.6491 22.5413 70.2135 22.5413ZM72.2133 22.0413H72.6291V24.3332H72.2133V22.0413ZM69.7333 24.551H72.6291V25.64H70.1442V26.3132H69.7432V25.3331H72.2232V24.8826H69.7333V24.551ZM69.7432 26.13H72.7776V26.4567H69.7432V26.13Z" fill="#401107"/>
<path d="M76.2376 25.5954H80.2916V25.937H76.2376V25.5954ZM78.0394 24.5114H78.4453V25.7093H78.0394V24.5114ZM78.0295 22.3383H78.3859V22.6848C78.3859 23.6402 77.4701 24.3777 76.5692 24.5658L76.396 24.2243C77.183 24.0807 78.0295 23.4224 78.0295 22.6848V22.3383ZM78.1037 22.3383H78.4601V22.6848C78.4601 23.4273 79.3115 24.0807 80.0986 24.2243L79.9204 24.5658C79.0195 24.3777 78.1037 23.6402 78.1037 22.6848V22.3383Z" fill="#401107"/>
<path d="M87.5348 3.51612H92.2691V4.40168H87.5348V3.51612ZM89.5784 2.20481H90.5661V7.94392H89.5784V2.20481ZM100.58 3.99296C101.125 4.94664 102.181 6.03656 103.049 6.56449C102.811 6.73479 102.487 7.07539 102.3 7.33084C101.448 6.66667 100.427 5.37239 99.8816 4.31653L100.58 3.99296ZM90.4469 4.52089C90.8046 4.77634 92.0648 5.73002 92.3543 6.01953L91.6901 6.81994C91.3836 6.36013 90.3788 5.3213 89.936 4.94664L90.4469 4.52089ZM89.5443 3.94187L90.2426 4.26544C89.6465 5.47457 88.6247 6.87103 87.6199 7.56926C87.5348 7.29678 87.3134 6.87103 87.1601 6.61558C88.0457 6.07062 89.0505 4.94664 89.5443 3.94187ZM97.5484 3.51612H102.674V4.41871H97.5484V3.51612ZM93.2909 3.03928H97.2249V3.83969H93.2909V3.03928ZM92.184 4.74228H97.5995V5.54269H92.184V4.74228ZM99.4217 2.20481H100.409V7.94392H99.4217V2.20481ZM94.483 3.32879H95.4538V7.39896H94.483V3.32879ZM91.4858 9.5788L91.9115 9.20414C92.218 9.37444 92.6268 9.66395 92.8311 9.86831L92.3883 10.277C92.201 10.0727 91.8093 9.76613 91.4858 9.5788ZM91.8604 12.525L92.3032 12.2014C92.6097 12.4228 92.9503 12.7123 93.1377 12.9337L92.6779 13.3084C92.4905 13.0699 92.1499 12.7464 91.8604 12.525ZM93.7167 11.0945L94.1424 10.7539C94.466 10.9242 94.8747 11.2137 95.0791 11.4351L94.6533 11.8268C94.4319 11.6054 94.0573 11.2988 93.7167 11.0945ZM89.6806 11.1285L90.1234 10.805C90.4299 10.9753 90.8046 11.2477 90.9919 11.4351L90.5491 11.8268C90.3447 11.6054 90.0041 11.3159 89.6806 11.1285ZM93.6145 9.68098L94.2617 9.88534C93.308 11.0604 91.8434 12.1844 90.5491 12.9167C90.4299 12.7975 90.1744 12.559 89.9871 12.4569C91.3155 11.7586 92.746 10.7539 93.6145 9.68098ZM90.4299 10.3622L90.9238 9.97049C92.201 10.6687 93.7337 11.7075 94.5171 12.4569L94.0062 12.8996C93.2398 12.1674 91.7242 11.0774 90.4299 10.3622ZM88.8461 10.0897H89.7657V13.121H95.028V10.0897H95.9987V13.9385H88.8461V10.0897ZM92.6268 5.88329H93.4272V7.04133H96.4756V5.88329H97.293V7.80768H92.6268V5.88329ZM87.7392 8.25046H102.351V11.0263H101.193V9.20414H88.8631V11.0263H87.7392V8.25046ZM88.8461 14.1939H89.8849V16.4589C89.8849 16.8506 90.0382 16.9187 90.9408 16.9187C91.3495 16.9187 93.5634 16.9187 94.1254 16.9187C94.7555 16.9187 94.8747 16.7995 94.9428 15.8458C95.1642 15.9991 95.573 16.1183 95.8625 16.1694C95.7433 17.4977 95.4027 17.8043 94.2617 17.8043C93.887 17.8043 91.2303 17.8043 90.8897 17.8043C89.2719 17.8043 88.8461 17.5659 88.8461 16.4759V14.1939ZM94.4319 14.211L95.1642 14.8751C93.7508 15.4371 91.4858 15.8288 89.6125 16.0332C89.5784 15.8118 89.4422 15.4882 89.3229 15.2838C91.1281 15.0625 93.2909 14.6878 94.4319 14.211ZM99.7623 9.54474L100.716 9.95346C99.7623 10.9071 98.2126 11.7416 96.8672 12.2355C96.6969 11.9971 96.3904 11.7075 96.1349 11.5032C97.4292 11.0604 98.9449 10.3451 99.7623 9.54474ZM100.478 11.6394L101.448 12.0141C100.444 13.2743 98.7065 14.3131 96.9694 14.9092C96.8162 14.6708 96.5096 14.3131 96.2542 14.1088C97.872 13.5979 99.575 12.6612 100.478 11.6394ZM101.397 13.7171L102.436 14.0747C101.329 15.914 99.1833 17.1571 96.5607 17.8724C96.4245 17.5999 96.152 17.2082 95.8965 16.9698C98.3488 16.4249 100.427 15.3009 101.397 13.7171ZM99.2174 3.97593L99.8986 4.23138C99.4899 5.40645 98.7065 6.71776 97.889 7.38193C97.7187 7.14351 97.4122 6.81994 97.1908 6.63261C98.0083 6.12171 98.8087 4.99773 99.2174 3.97593ZM93.325 2.22184L94.2106 2.34105C93.9551 3.19255 93.5805 4.00999 92.9503 4.70822C92.78 4.53792 92.4565 4.31653 92.218 4.21435C92.78 3.6183 93.1206 2.86898 93.325 2.22184Z" fill="#401107"/>
</g>
</g>
<defs>
<clipPath id="clip0_305_627">
<rect width="116" height="50" fill="white"/>
</clipPath>
</defs>
</svg>
