<svg width="192" height="81" viewBox="0 0 192 81" fill="none" xmlns="http://www.w3.org/2000/svg">
<rect y="46" width="32" height="35" fill="#880A01"/>
<rect width="32" height="35" fill="#C68B3F"/>
<path d="M26.176 13.16L20.576 12.84C20.992 10.888 21.216 8.968 21.28 6.984H4.704V2.472H26.912C26.88 6.312 26.656 10.12 26.176 13.16ZM16.96 8.776V14.44H31.2V18.92H0.8V14.44H11.296V8.776H16.96ZM16 20.584C23.232 20.584 27.52 22.824 27.52 26.568C27.52 30.44 23.232 32.52 16 32.52C8.768 32.52 4.48 30.44 4.48 26.568C4.48 22.824 8.768 20.584 16 20.584ZM20.8 27.592C21.216 27.336 21.408 26.952 21.408 26.472C21.408 25.992 21.216 25.576 20.8 25.288C19.68 24.808 18.176 24.52 16 24.52C13.824 24.52 12.32 24.808 11.232 25.288C10.784 25.576 10.592 25.992 10.592 26.472C10.592 26.952 10.816 27.336 11.232 27.592C12.32 28.136 13.824 28.424 16 28.424C18.176 28.424 19.68 28.136 20.8 27.592ZM29.024 65.4H23.328V58.52H18.08V53.816H23.328V47.48H29.024V65.4ZM20.608 61.592L18.016 65.4L11.488 61.656C9.184 63.576 6.432 65.144 3.424 66.264L0.832 62.072C6.432 60.184 9.76 57.368 11.52 54.328V54.2H2.656V49.624H18.048C17.696 52.92 16.48 55.8 14.688 58.232L20.608 61.592ZM17.76 65.784C24.8 65.784 29.056 68.216 29.056 72.216C29.056 76.312 24.8 78.616 17.76 78.616C10.656 78.616 6.432 76.312 6.432 72.216C6.432 68.216 10.656 65.784 17.76 65.784ZM22.368 73.4C22.848 73.08 23.04 72.632 23.04 72.12C23.04 71.608 22.848 71.16 22.368 70.84C21.344 70.328 19.872 70.008 17.76 70.008C15.616 70.008 14.144 70.328 13.088 70.84C12.672 71.16 12.448 71.608 12.448 72.12C12.448 72.632 12.672 73.08 13.088 73.4C14.112 73.912 15.616 74.2 17.76 74.2C19.872 74.2 21.344 73.912 22.368 73.4Z" fill="white"/>
<path d="M55.328 32.2V1.48H61.024V32.2H55.328ZM34.72 5.096H50.976C50.528 9.544 49.152 13.544 47.136 17.064L53.632 23.304L50.272 27.4L44.16 21.288C41.952 23.944 39.328 26.184 36.48 27.976L32.832 23.4C38.528 20.136 42.528 15.656 44.128 10.376V10.248H34.72V5.096ZM87.328 17.672H80.384C78.88 19.08 76.768 19.752 74.304 19.752C69.504 19.752 65.952 17.128 65.952 11.688C65.952 6.28 69.504 3.656 74.304 3.656C76.864 3.656 79.04 4.392 80.576 5.896H87.328V1.48H93.024V24.392H87.328V17.672ZM71.2 11.688C71.2 14.184 72.32 15.4 74.4 15.4C76.48 15.4 77.6 14.184 77.6 11.688C77.6 9.224 76.48 8.008 74.4 8.008C72.32 8.008 71.2 9.256 71.2 11.688ZM82.528 13.576H87.328V9.992H82.56C82.656 10.536 82.688 11.08 82.688 11.688C82.688 12.36 82.624 13 82.528 13.576ZM76.928 21.48V27.112H93.952V32.072H71.232V21.48H76.928ZM119.328 17.576H114.304V20.008H98.624V3.624H103.648V7.976H109.344V3.624H114.304V6.472H119.328V1.48H125.024V24.392H119.328V17.576ZM119.328 13.48V10.568H114.304V13.48H119.328ZM103.648 15.688H109.344V12.072H103.648V15.688ZM108.928 21.896V27.176H125.952V32.072H103.232V21.896H108.928ZM135.808 2.184H152.192V6.024H135.808V2.184ZM130.784 7.464H157.216V11.528H130.784V7.464ZM146.848 22.248V24.712H159.2V29.544H128.8V24.712H141.184V22.248C136.768 21.832 133.76 20.392 133.76 17.512C133.76 14.056 138.112 12.68 144 12.68C149.92 12.68 154.272 14.056 154.272 17.512C154.272 20.392 151.264 21.832 146.848 22.248ZM139.392 17.512C139.392 17.8 139.552 18.088 139.904 18.248C140.64 18.6 141.984 18.76 144 18.76C146.048 18.76 147.424 18.6 148.096 18.248C148.448 18.056 148.608 17.8 148.608 17.512C148.608 17.224 148.448 17 148.096 16.776C147.424 16.424 146.048 16.264 144 16.264C141.984 16.264 140.64 16.424 139.904 16.776C139.552 17 139.392 17.224 139.392 17.512ZM187.648 13.416H191.68V19.112H187.648V32.2H182.08V1.48H187.648V13.416ZM168.192 4.232L173.984 4.36C173.856 7.72 173.408 10.76 172.704 13.544L180.576 22.44L176.896 26.536L170.656 19.304C169.152 22.472 167.2 25.224 164.896 27.56L160.416 23.528C165.248 19.016 168 12.968 168.192 4.232ZM55.328 47.48H61.024V70.392H55.328V47.48ZM53.472 62.808L50.848 66.712L43.904 62.648C41.504 64.696 38.656 66.328 35.552 67.544L32.832 63.224C38.592 61.24 42.208 58.296 44.064 54.904V54.776H34.72V50.168H50.784C50.4 53.592 49.12 56.6 47.168 59.192L53.472 62.808ZM44.928 67.48V73.112H61.952V78.072H39.232V67.48H44.928ZM81.952 68.792V64.408H87.584V47.48H93.024V71.224H87.584V68.792H81.952ZM77.856 69.08H72.416V63.864C70.208 63.96 67.872 63.992 65.408 63.992L64.864 59.288C69.536 59.288 73.6 59.192 77.216 58.968C77.536 57.048 77.76 55.32 77.824 53.912H67.232V49.272H83.36C83.232 52.856 82.816 55.928 82.208 58.52C83.136 58.424 84 58.296 84.864 58.168L85.248 62.648C83.008 63.032 80.544 63.32 77.856 63.544V69.08ZM76.704 69.944V73.368H93.44V78.104H71.04V69.944H76.704ZM119.328 63.576H114.304V66.008H98.624V49.624H103.648V53.976H109.344V49.624H114.304V52.472H119.328V47.48H125.024V70.392H119.328V63.576ZM119.328 59.48V56.568H114.304V59.48H119.328ZM103.648 61.688H109.344V58.072H103.648V61.688ZM108.928 67.896V73.176H125.952V78.072H103.232V67.896H108.928ZM135.808 48.184H152.192V52.024H135.808V48.184ZM130.784 53.464H157.216V57.528H130.784V53.464ZM146.848 68.248V70.712H159.2V75.544H128.8V70.712H141.184V68.248C136.768 67.832 133.76 66.392 133.76 63.512C133.76 60.056 138.112 58.68 144 58.68C149.92 58.68 154.272 60.056 154.272 63.512C154.272 66.392 151.264 67.832 146.848 68.248ZM139.392 63.512C139.392 63.8 139.552 64.088 139.904 64.248C140.64 64.6 141.984 64.76 144 64.76C146.048 64.76 147.424 64.6 148.096 64.248C148.448 64.056 148.608 63.8 148.608 63.512C148.608 63.224 148.448 63 148.096 62.776C147.424 62.424 146.048 62.264 144 62.264C141.984 62.264 140.64 62.424 139.904 62.776C139.552 63 139.392 63.224 139.392 63.512ZM187.648 59.416H191.68V65.112H187.648V78.2H182.08V47.48H187.648V59.416ZM168.192 50.232L173.984 50.36C173.856 53.72 173.408 56.76 172.704 59.544L180.576 68.44L176.896 72.536L170.656 65.304C169.152 68.472 167.2 71.224 164.896 73.56L160.416 69.528C165.248 65.016 168 58.968 168.192 50.232Z" fill="#130401"/>
</svg>
